<?xml version="1.0" encoding="utf-8"?>
<!-- Generator: Adobe Illustrator 26.0.1, SVG Export Plug-In . SVG Version: 6.00 Build 0)  -->
<svg version="1.1" id="Calque_1" xmlns="http://www.w3.org/2000/svg" xmlns:xlink="http://www.w3.org/1999/xlink" x="0px" y="0px"
	 viewBox="0 0 124.7 151.64" style="enable-background:new 0 0 124.7 151.64;" xml:space="preserve">
<style type="text/css">
	.st0{fill:#E7EDB9;}
</style>
<path class="st0" d="M98.31,74.41c6.98-6.06,11.2-14.01,11.2-24.65c0-22.22-18.18-36.22-40.58-36.22l-38.03,0
	c-1.06-0.26-2.09-0.56-3.07-0.9c-4.43-1.51-8.24-3.79-11.44-6.84l-7.53,7.77c3.03,4.26,6.73,7.38,11.08,9.35
	c2.58,1.18,5.25,2.14,8.02,2.89v115.74h44.64c22.95,0,41.5-15.12,41.5-37.89C114.1,90.63,107.86,80.47,98.31,74.41z M78.52,48.15
	c-5.18,2.34-12.01,6.02-16.51,9.81l0,0.16c-0.29,0.12-0.49,0.2-0.49,0.2v42.16c0.86,0.01,2.24,0.07,2.29,0.07
	c5.51,0.31,10.28,3.2,10.28,7.14c0,3.94-4.58,7.11-10.26,7.11c-0.38,0-2.05,0.04-2.53,0.04c-6.86,0-12.42-3.23-12.42-7.19
	c0-2.39,2.03-4.52,5.15-5.83c0.62-0.26,1.3,0.2,1.29,0.87c-0.05,3.33,1.9,6.37,4.96,7.71l1.18,0.52c0.35,0.15,0.76,0.02,0.95-0.31
	c0.23-0.39,0.08-0.89-0.34-1.07l-0.05-0.03c-3.01-1.33-5.05-4.32-5.04-7.61l-0.03-15.45V39.45c0.5-0.1,0.97-0.27,1.51-0.3
	c6.27-0.44,11.81-0.1,16.68,0.93c1.57,0.45,3.13,0.89,4.63,1.32c3.15,1.05,6.12,2.37,8.79,4.14C85.04,45.88,81.67,46.7,78.52,48.15z
	"/>
</svg>
