<?xml version="1.0" encoding="utf-8"?>
<!-- Generator: Adobe Illustrator 26.0.1, SVG Export Plug-In . SVG Version: 6.00 Build 0)  -->
<svg version="1.1" id="Calque_1" xmlns="http://www.w3.org/2000/svg" xmlns:xlink="http://www.w3.org/1999/xlink" x="0px" y="0px"
	 viewBox="0 0 226.77 226.77" style="enable-background:new 0 0 226.77 226.77;" xml:space="preserve">
<style type="text/css">
	.st0{fill:#FF1200;}
	.st1{fill:#FFFFFF;}
	.st2{fill:#004FBA;}
</style>
<path class="st0" d="M138.12,42.1v142.57c29.58-10.34,50.63-38.35,50.63-71.29C188.74,80.45,167.69,52.44,138.12,42.1"/>
<path class="st1" d="M113.38,37.83c-8.88,0-17.25,1.53-24.88,4.32v142.47c7.63,2.8,16,4.32,24.88,4.32c8.82,0,17.1-1.51,24.73-4.27
	V42.1C130.48,39.34,122.21,37.83,113.38,37.83"/>
<path class="st2" d="M38.03,113.39c0,32.88,20.9,60.85,50.47,71.23V42.15C58.93,52.54,38.03,80.51,38.03,113.39"/>
</svg>
