<?xml version="1.0" encoding="utf-8"?>
<!-- Generator: Adobe Illustrator 26.0.1, SVG Export Plug-In . SVG Version: 6.00 Build 0)  -->
<svg version="1.1" id="Calque_1" xmlns="http://www.w3.org/2000/svg" xmlns:xlink="http://www.w3.org/1999/xlink" x="0px" y="0px"
	 viewBox="0 0 226.77 226.77" style="enable-background:new 0 0 226.77 226.77;" xml:space="preserve">
<style type="text/css">
	.st0{clip-path:url(#SVGID_00000036219074570211799910000012702964658077250993_);fill:#FFFFFF;}
	.st1{clip-path:url(#SVGID_00000036219074570211799910000012702964658077250993_);fill:#FF1200;}
	.st2{clip-path:url(#SVGID_00000036219074570211799910000012702964658077250993_);fill:#3D3B6E;}
</style>
<g>
	<defs>
		<rect id="SVGID_1_" x="37.83" y="37.83" width="151.12" height="151.11"/>
	</defs>
	<clipPath id="SVGID_00000003079576459304074220000007868143492788357801_">
		<use xlink:href="#SVGID_1_"  style="overflow:visible;"/>
	</clipPath>
	<path style="clip-path:url(#SVGID_00000003079576459304074220000007868143492788357801_);fill:#FFFFFF;" d="M188.95,113.39
		c0,41.73-33.83,75.55-75.56,75.55s-75.56-33.83-75.56-75.55s33.83-75.55,75.56-75.55S188.95,71.66,188.95,113.39"/>
	<path style="clip-path:url(#SVGID_00000003079576459304074220000007868143492788357801_);fill:#FF1200;" d="M128.43,187.27
		c0-19.25,0-38.42,0-57.67c0-0.24,0-0.43,0-0.67c0-0.29,0.16-0.41,0.44-0.42c0.26,0,0.51,0.01,0.77,0.01c19.26,0,38.52,0,57.78,0
		c0.99-4.89,1.52-10.11,1.52-15.3c0-5.18-0.52-10.52-1.52-15.3h-57.84c-1.15,0-1.15,0.16-1.15-0.99c0-19.25,0-38.45,0-57.7
		c-4.21-0.85-8.55-1.42-12.98-1.42h-4.13c-4.5,0-8.9,0.65-13.18,1.53c0,19.24,0,38.49,0,57.73c0,0.23,0,0.48,0,0.71
		c0,0.29-0.15,0.43-0.44,0.43c-0.26,0-0.51,0.01-0.77,0.01c-19.2,0-38.39,0-57.59,0c-1,4.89-1.52,9.92-1.52,15.11
		c0,5.18,0.52,10.34,1.52,15.11h57.64c1.15,0,1.15,0.03,1.15,1.18c0,19.24,0,38.33,0,57.57c4.27,0.87,8.68,1.36,13.18,1.36h4.12
		C119.88,188.58,124.22,188.13,128.43,187.27"/>
	<path style="clip-path:url(#SVGID_00000003079576459304074220000007868143492788357801_);fill:#3D3B6E;" d="M88.18,82.87
		c0-13.57,0-27.15,0-40.72c-13.68,4.84-25.55,13.5-34.33,24.71c11.1,5.55,22.21,11.1,33.31,16.65
		C88.18,84.03,88.18,84.03,88.18,82.87"/>
	<path style="clip-path:url(#SVGID_00000003079576459304074220000007868143492788357801_);fill:#3D3B6E;" d="M139.37,83.54
		c11.17-5.58,22.33-11.17,33.5-16.75c-8.81-11.23-20.73-19.89-34.47-24.71c0,13.62,0,27.23,0,40.85
		C138.4,84.01,138.41,84.02,139.37,83.54"/>
	<path style="clip-path:url(#SVGID_00000003079576459304074220000007868143492788357801_);fill:#3D3B6E;" d="M87.21,143.24
		c-11.12,5.56-22.24,11.12-33.36,16.68c8.77,11.21,20.65,19.87,34.33,24.71c0-13.6,0-27.19,0-40.78
		C88.18,142.77,88.17,142.76,87.21,143.24"/>
	<path style="clip-path:url(#SVGID_00000003079576459304074220000007868143492788357801_);fill:#3D3B6E;" d="M138.4,143.91
		c0,13.6,0,27.19,0,40.79c13.73-4.82,25.66-13.48,34.47-24.71c-11.15-5.57-22.3-11.15-33.45-16.72
		C138.4,142.75,138.4,142.75,138.4,143.91"/>
	<path style="clip-path:url(#SVGID_00000003079576459304074220000007868143492788357801_);fill:#FF1200;" d="M141.93,87.74
		c-0.22,0.11-0.52,0.16-0.62,0.46c0.3,0.12,0.58,0.07,0.85,0.07c6.79,0,13.57-0.01,20.36,0.01c0.77,0,1.46-0.16,2.14-0.51
		c5.44-2.72,10.88-5.44,16.33-8.16c-1.53-3.07-3.27-6.01-5.19-8.82c-0.76,0.38-1.51,0.75-2.27,1.13
		C163,77.21,152.46,82.47,141.93,87.74"/>
	<path style="clip-path:url(#SVGID_00000003079576459304074220000007868143492788357801_);fill:#FF1200;" d="M84.65,139.04
		c0.22-0.11,0.52-0.16,0.62-0.46c-0.31-0.12-0.58-0.07-0.86-0.07c-6.79,0-13.57,0-20.36-0.01c-0.77,0-1.45,0.16-2.14,0.51
		c-5.39,2.7-10.78,5.39-16.17,8.09c1.53,3.07,3.26,6.02,5.18,8.83c0.71-0.36,1.42-0.71,2.13-1.07
		C63.58,149.57,74.12,144.31,84.65,139.04"/>
	<path style="clip-path:url(#SVGID_00000003079576459304074220000007868143492788357801_);fill:#FF1200;" d="M62.88,88.14
		c-0.28-0.15-0.5-0.27-0.72-0.38c-5.45-2.72-10.9-5.45-16.35-8.18c-1.41,2.81-2.65,5.72-3.7,8.71c6.7-0.01,13.4-0.01,20.1-0.01
		C62.4,88.28,62.62,88.34,62.88,88.14"/>
	<path style="clip-path:url(#SVGID_00000003079576459304074220000007868143492788357801_);fill:#FF1200;" d="M163.76,138.6
		c0.19,0.26,0.48,0.33,0.71,0.45c5.48,2.74,10.97,5.49,16.46,8.23c1.42-2.83,2.67-5.76,3.74-8.79c-6.77,0.01-13.53,0.01-20.29,0.01
		C164.18,138.5,163.96,138.45,163.76,138.6"/>
</g>
</svg>
