<?xml version="1.0" encoding="utf-8"?>
<!-- Generator: Adobe Illustrator 26.0.1, SVG Export Plug-In . SVG Version: 6.00 Build 0)  -->
<svg version="1.1" id="Calque_1" xmlns="http://www.w3.org/2000/svg" xmlns:xlink="http://www.w3.org/1999/xlink" x="0px" y="0px"
	 viewBox="0 0 151.49 177.61" style="enable-background:new 0 0 151.49 177.61;" xml:space="preserve">
<style type="text/css">
	.st0{fill:#FFFFFF;}
</style>
<path class="st0" d="M115.5,46.32v-0.59c0-22.33-18.17-40.5-40.51-40.5c-22.33,0-40.5,18.17-40.5,40.5v0.59H6.89v90.94
	c0,18.55,15.09,33.64,33.64,33.64h68.95c18.55,0,33.64-15.09,33.64-33.64V46.32H115.5z M48.59,45.72
	c0-14.56,11.85-26.41,26.41-26.41c14.57,0,26.42,11.85,26.42,26.41v0.59H48.59V45.72z M129.03,137.25
	c0,10.78-8.77,19.55-19.55,19.55H40.53c-10.78,0-19.55-8.77-19.55-19.55V60.4H34.5v11.5c0,3.89,3.15,7.04,7.04,7.04
	s7.04-3.15,7.04-7.04V60.4h52.83v11.5c0,3.89,3.15,7.04,7.04,7.04s7.04-3.15,7.04-7.04V60.4h13.52V137.25z"/>
</svg>
